<mxfile host="app.diagrams.net" modified="2022-12-19T13:03:49.192Z" agent="5.0 (Windows NT 10.0; Win64; x64) AppleWebKit/537.36 (KHTML, like Gecko) Chrome/108.0.0.0 Safari/537.36 Edg/108.0.1462.54" etag="ugyY0epejcQC6U1XfEZV" version="20.4.2" type="github">
  <diagram id="7VNTyIXgCYSRoVJzogrN" name="第 1 页">
    <mxGraphModel dx="735" dy="468" grid="1" gridSize="10" guides="1" tooltips="1" connect="1" arrows="1" fold="1" page="1" pageScale="1" pageWidth="827" pageHeight="1169" math="0" shadow="0">
      <root>
        <mxCell id="0" />
        <mxCell id="1" parent="0" />
        <mxCell id="AUQikuE7Xa2qDKhp4O2R-2" value="&lt;font style=&quot;font-size: 18px;&quot;&gt;ram state&lt;/font&gt;" style="rounded=0;whiteSpace=wrap;html=1;" vertex="1" parent="1">
          <mxGeometry x="360" y="80" width="200" height="40" as="geometry" />
        </mxCell>
        <mxCell id="AUQikuE7Xa2qDKhp4O2R-3" value="" style="rounded=0;whiteSpace=wrap;html=1;fontSize=18;" vertex="1" parent="1">
          <mxGeometry x="360" y="120" width="200" height="180" as="geometry" />
        </mxCell>
        <mxCell id="AUQikuE7Xa2qDKhp4O2R-4" value="migration&lt;br&gt;context" style="rounded=0;whiteSpace=wrap;html=1;fontSize=18;" vertex="1" parent="1">
          <mxGeometry x="400" y="140" width="120" height="60" as="geometry" />
        </mxCell>
        <mxCell id="AUQikuE7Xa2qDKhp4O2R-5" value="backup&lt;br&gt;context" style="rounded=0;whiteSpace=wrap;html=1;fontSize=18;" vertex="1" parent="1">
          <mxGeometry x="400" y="220" width="120" height="60" as="geometry" />
        </mxCell>
        <mxCell id="AUQikuE7Xa2qDKhp4O2R-6" value="backup ram pages" style="rounded=1;whiteSpace=wrap;html=1;fontSize=18;" vertex="1" parent="1">
          <mxGeometry x="120" y="260" width="120" height="60" as="geometry" />
        </mxCell>
        <mxCell id="AUQikuE7Xa2qDKhp4O2R-16" style="edgeStyle=orthogonalEdgeStyle;rounded=0;orthogonalLoop=1;jettySize=auto;html=1;exitX=0.5;exitY=1;exitDx=0;exitDy=0;entryX=0.5;entryY=0;entryDx=0;entryDy=0;fontSize=18;" edge="1" parent="1" source="AUQikuE7Xa2qDKhp4O2R-7" target="AUQikuE7Xa2qDKhp4O2R-6">
          <mxGeometry relative="1" as="geometry" />
        </mxCell>
        <mxCell id="AUQikuE7Xa2qDKhp4O2R-7" value="migrate ram pages" style="rounded=1;whiteSpace=wrap;html=1;fontSize=18;" vertex="1" parent="1">
          <mxGeometry x="120" y="180" width="120" height="60" as="geometry" />
        </mxCell>
        <mxCell id="AUQikuE7Xa2qDKhp4O2R-12" value="save_normal_page" style="rounded=1;whiteSpace=wrap;html=1;fontSize=18;" vertex="1" parent="1">
          <mxGeometry x="40" y="60" width="180" height="40" as="geometry" />
        </mxCell>
        <mxCell id="AUQikuE7Xa2qDKhp4O2R-13" value="save_zero_page" style="rounded=1;whiteSpace=wrap;html=1;fontSize=18;" vertex="1" parent="1">
          <mxGeometry x="160" y="120" width="180" height="40" as="geometry" />
        </mxCell>
        <mxCell id="AUQikuE7Xa2qDKhp4O2R-14" value="" style="endArrow=classic;html=1;rounded=0;fontSize=18;entryX=0;entryY=0;entryDx=0;entryDy=0;" edge="1" parent="1" target="AUQikuE7Xa2qDKhp4O2R-7">
          <mxGeometry width="50" height="50" relative="1" as="geometry">
            <mxPoint x="80" y="100" as="sourcePoint" />
            <mxPoint x="130" y="50" as="targetPoint" />
          </mxGeometry>
        </mxCell>
        <mxCell id="AUQikuE7Xa2qDKhp4O2R-15" value="" style="endArrow=classic;html=1;rounded=0;fontSize=18;entryX=1;entryY=0;entryDx=0;entryDy=0;" edge="1" parent="1" target="AUQikuE7Xa2qDKhp4O2R-7">
          <mxGeometry width="50" height="50" relative="1" as="geometry">
            <mxPoint x="300" y="160" as="sourcePoint" />
            <mxPoint x="350" y="110" as="targetPoint" />
          </mxGeometry>
        </mxCell>
        <mxCell id="AUQikuE7Xa2qDKhp4O2R-17" value="" style="endArrow=classic;html=1;rounded=0;dashed=1;fontSize=18;entryX=0;entryY=0.5;entryDx=0;entryDy=0;" edge="1" parent="1" target="AUQikuE7Xa2qDKhp4O2R-4">
          <mxGeometry width="50" height="50" relative="1" as="geometry">
            <mxPoint x="240" y="210" as="sourcePoint" />
            <mxPoint x="290" y="160" as="targetPoint" />
          </mxGeometry>
        </mxCell>
        <mxCell id="AUQikuE7Xa2qDKhp4O2R-18" value="" style="endArrow=classic;html=1;rounded=0;dashed=1;fontSize=18;entryX=0;entryY=0.5;entryDx=0;entryDy=0;" edge="1" parent="1" target="AUQikuE7Xa2qDKhp4O2R-5">
          <mxGeometry width="50" height="50" relative="1" as="geometry">
            <mxPoint x="240" y="290" as="sourcePoint" />
            <mxPoint x="290" y="240" as="targetPoint" />
          </mxGeometry>
        </mxCell>
      </root>
    </mxGraphModel>
  </diagram>
</mxfile>
